<svg xmlns="http://www.w3.org/2000/svg" width="27.416" height="27.411" viewBox="0 0 27.416 27.411">
  <path id="Path_2" data-name="Path 2" d="M29.344,16.436a1.168,1.168,0,0,0-1.074-.731H23.039V3.142A1.131,1.131,0,0,0,21.9,2H9.517A1.131,1.131,0,0,0,8.374,3.142V15.705H3.144a1.142,1.142,0,0,0-.777,1.987L14.93,29.114a1.164,1.164,0,0,0,1.553,0L29.047,17.693A1.175,1.175,0,0,0,29.344,16.436ZM15.707,26.715,6.09,17.99H9.517a1.131,1.131,0,0,0,1.142-1.142V4.284h10.1V16.848A1.131,1.131,0,0,0,21.9,17.99h3.426Z" transform="translate(-1.999 -2)" fill="#fff"/>
</svg>
